<svg width="585" height="585" viewBox="0 0 585 585" fill="none" xmlns="http://www.w3.org/2000/svg">
<path d="M522.278 397.697H446.59C438.893 397.697 432.479 391.283 432.479 383.586V14.1118C432.479 6.41447 438.893 0 446.59 0H522.278C529.975 0 536.389 6.41447 536.389 14.1118V382.303C537.672 390 531.258 397.697 522.278 397.697Z" fill="#391874"/>
<path d="M47.624 239.901C47.624 127.007 129.726 67.9934 223.375 67.9934C317.023 67.9934 399.125 127.007 399.125 239.901C399.125 352.796 318.306 407.961 223.375 407.961C128.444 407.961 47.624 352.796 47.624 239.901ZM296.497 237.336C296.497 187.303 263.143 160.362 224.657 160.362C184.889 160.362 151.535 187.303 151.535 237.336C151.535 288.651 184.889 314.309 224.657 314.309C263.143 314.309 296.497 288.651 296.497 237.336Z" fill="#391874"/>
<path d="M523.561 582.434C519.712 583.717 458.136 587.566 401.69 579.869C323.436 569.605 242.617 547.796 237.485 545.23C229.788 542.665 223.374 538.816 223.374 531.119V465.691C223.374 457.993 228.505 450.296 237.485 451.579C246.465 454.145 322.154 475.954 400.407 486.217C456.853 493.915 519.713 487.5 522.278 487.5C529.975 487.5 536.39 493.915 536.39 501.612V567.04C537.672 576.02 532.541 579.869 523.561 582.434Z" fill="#F42D25"/>
</svg>
